<svg width="214" height="38" viewBox="0 0 214 38" fill="none" xmlns="http://www.w3.org/2000/svg">
<g clip-path="url(#clip0_102_14)">
<path d="M15.0416 10.2917V15.0417H10.2916V10.2917H15.0416ZM17.4166 7.91667H7.91663V17.4167H17.4166V7.91667ZM15.0416 22.9583V27.7083H10.2916V22.9583H15.0416ZM17.4166 20.5833H7.91663V30.0833H17.4166V20.5833ZM27.7083 10.2917V15.0417H22.9583V10.2917H27.7083ZM30.0833 7.91667H20.5833V17.4167H30.0833V7.91667ZM20.5833 20.5833H22.9583V22.9583H20.5833V20.5833ZM22.9583 22.9583H25.3333V25.3333H22.9583V22.9583ZM25.3333 20.5833H27.7083V22.9583H25.3333V20.5833ZM20.5833 25.3333H22.9583V27.7083H20.5833V25.3333ZM22.9583 27.7083H25.3333V30.0833H22.9583V27.7083ZM25.3333 25.3333H27.7083V27.7083H25.3333V25.3333ZM27.7083 22.9583H30.0833V25.3333H27.7083V22.9583ZM27.7083 27.7083H30.0833V30.0833H27.7083V27.7083ZM34.8333 11.0833H31.6666V6.33333H26.9166V3.16667H34.8333V11.0833ZM34.8333 34.8333V26.9167H31.6666V31.6667H26.9166V34.8333H34.8333ZM3.16663 34.8333H11.0833V31.6667H6.33329V26.9167H3.16663V34.8333ZM3.16663 3.16667V11.0833H6.33329V6.33333H11.0833V3.16667H3.16663Z" fill="#F0EEED"/>
</g>
<path d="M66.8849 16.3622H64.2287C64.1529 15.9266 64.0133 15.5407 63.8097 15.2045C63.6061 14.8636 63.3527 14.5748 63.0497 14.3381C62.7467 14.1013 62.401 13.9238 62.0128 13.8054C61.6293 13.6823 61.215 13.6207 60.7699 13.6207C59.9792 13.6207 59.2784 13.8196 58.6676 14.2173C58.0568 14.6103 57.5786 15.188 57.233 15.9503C56.8873 16.7079 56.7145 17.6335 56.7145 18.7273C56.7145 19.84 56.8873 20.7775 57.233 21.5398C57.5833 22.2973 58.0616 22.8703 58.6676 23.2585C59.2784 23.642 59.9768 23.8338 60.7628 23.8338C61.1984 23.8338 61.6056 23.777 61.9844 23.6634C62.3679 23.545 62.7112 23.3722 63.0142 23.1449C63.322 22.9176 63.58 22.6383 63.7884 22.3068C64.0014 21.9754 64.1482 21.5966 64.2287 21.1705L66.8849 21.1847C66.7855 21.8759 66.5701 22.5246 66.2386 23.1307C65.9119 23.7367 65.4834 24.2718 64.9531 24.7358C64.4228 25.1951 63.8026 25.5549 63.0923 25.8153C62.3821 26.071 61.5938 26.1989 60.7273 26.1989C59.4489 26.1989 58.3078 25.9029 57.304 25.3111C56.3002 24.7192 55.5095 23.8646 54.9318 22.7472C54.3542 21.6297 54.0653 20.2898 54.0653 18.7273C54.0653 17.16 54.3565 15.8201 54.9389 14.7074C55.5213 13.59 56.3144 12.7353 57.3182 12.1435C58.322 11.5516 59.4583 11.2557 60.7273 11.2557C61.5369 11.2557 62.2898 11.3693 62.9858 11.5966C63.6818 11.8239 64.3021 12.1577 64.8466 12.598C65.3911 13.0336 65.8385 13.5687 66.1889 14.2031C66.544 14.8329 66.776 15.5526 66.8849 16.3622ZM85.0951 18.7273C85.0951 20.2945 84.8015 21.6368 84.2144 22.7543C83.632 23.867 82.8366 24.7192 81.8281 25.3111C80.8243 25.9029 79.6855 26.1989 78.4119 26.1989C77.1382 26.1989 75.9971 25.9029 74.9886 25.3111C73.9848 24.7145 73.1893 23.8598 72.6022 22.7472C72.0198 21.6297 71.7286 20.2898 71.7286 18.7273C71.7286 17.16 72.0198 15.8201 72.6022 14.7074C73.1893 13.59 73.9848 12.7353 74.9886 12.1435C75.9971 11.5516 77.1382 11.2557 78.4119 11.2557C79.6855 11.2557 80.8243 11.5516 81.8281 12.1435C82.8366 12.7353 83.632 13.59 84.2144 14.7074C84.8015 15.8201 85.0951 17.16 85.0951 18.7273ZM82.446 18.7273C82.446 17.6241 82.2731 16.6937 81.9275 15.9361C81.5866 15.1738 81.1131 14.5985 80.507 14.2102C79.901 13.8172 79.2026 13.6207 78.4119 13.6207C77.6211 13.6207 76.9228 13.8172 76.3167 14.2102C75.7106 14.5985 75.2348 15.1738 74.8891 15.9361C74.5482 16.6937 74.3778 17.6241 74.3778 18.7273C74.3778 19.8305 74.5482 20.7633 74.8891 21.5256C75.2348 22.2831 75.7106 22.8584 76.3167 23.2514C76.9228 23.6397 77.6211 23.8338 78.4119 23.8338C79.2026 23.8338 79.901 23.6397 80.507 23.2514C81.1131 22.8584 81.5866 22.2831 81.9275 21.5256C82.2731 20.7633 82.446 19.8305 82.446 18.7273ZM90.3862 26V11.4545H99.7044V13.6634H93.0212V17.6122H99.0652V19.821H93.0212V26H90.3862ZM104.905 26V11.4545H114.223V13.6634H107.54V17.6122H113.584V19.821H107.54V26H104.905ZM119.424 26V11.4545H128.884V13.6634H122.059V17.6122H128.394V19.821H122.059V23.7912H128.941V26H119.424ZM134.372 26V11.4545H143.832V13.6634H137.007V17.6122H143.342V19.821H137.007V23.7912H143.889V26H134.372ZM157.225 15.4531C157.159 14.8329 156.88 14.3499 156.387 14.0043C155.9 13.6586 155.265 13.4858 154.484 13.4858C153.935 13.4858 153.464 13.5687 153.071 13.7344C152.678 13.9001 152.377 14.125 152.169 14.4091C151.96 14.6932 151.854 15.0175 151.849 15.3821C151.849 15.6851 151.918 15.9479 152.055 16.1705C152.197 16.393 152.389 16.5824 152.63 16.7386C152.872 16.8902 153.139 17.018 153.433 17.1222C153.726 17.2263 154.022 17.3139 154.321 17.3849L155.684 17.7259C156.233 17.8537 156.761 18.0265 157.268 18.2443C157.779 18.4621 158.236 18.7367 158.639 19.0682C159.046 19.3996 159.368 19.7997 159.605 20.2685C159.841 20.7372 159.96 21.2865 159.96 21.9162C159.96 22.7685 159.742 23.5189 159.306 24.1676C158.871 24.8116 158.241 25.3158 157.417 25.6804C156.598 26.0402 155.606 26.2202 154.441 26.2202C153.31 26.2202 152.327 26.045 151.494 25.6946C150.665 25.3442 150.017 24.8329 149.548 24.1605C149.084 23.4882 148.833 22.669 148.795 21.7031H151.387C151.425 22.2098 151.581 22.6312 151.856 22.9673C152.131 23.3035 152.488 23.5545 152.929 23.7202C153.374 23.8859 153.871 23.9688 154.42 23.9688C154.993 23.9688 155.495 23.8835 155.926 23.7131C156.361 23.5379 156.702 23.2964 156.948 22.9886C157.195 22.6761 157.32 22.3116 157.325 21.8949C157.32 21.5161 157.209 21.2036 156.991 20.9574C156.773 20.7064 156.468 20.4981 156.075 20.3324C155.687 20.1619 155.232 20.0104 154.711 19.8778L153.056 19.4517C151.858 19.1439 150.912 18.6776 150.215 18.0526C149.524 17.4228 149.179 16.5871 149.179 15.5455C149.179 14.6884 149.411 13.938 149.875 13.294C150.343 12.6501 150.98 12.1506 151.785 11.7955C152.59 11.4356 153.501 11.2557 154.519 11.2557C155.552 11.2557 156.456 11.4356 157.233 11.7955C158.014 12.1506 158.627 12.6454 159.072 13.2798C159.517 13.9096 159.747 14.634 159.761 15.4531H157.225ZM177.559 16.3622H174.903C174.827 15.9266 174.687 15.5407 174.484 15.2045C174.28 14.8636 174.027 14.5748 173.724 14.3381C173.421 14.1013 173.075 13.9238 172.687 13.8054C172.303 13.6823 171.889 13.6207 171.444 13.6207C170.653 13.6207 169.953 13.8196 169.342 14.2173C168.731 14.6103 168.253 15.188 167.907 15.9503C167.562 16.7079 167.389 17.6335 167.389 18.7273C167.389 19.84 167.562 20.7775 167.907 21.5398C168.258 22.2973 168.736 22.8703 169.342 23.2585C169.953 23.642 170.651 23.8338 171.437 23.8338C171.873 23.8338 172.28 23.777 172.659 23.6634C173.042 23.545 173.385 23.3722 173.688 23.1449C173.996 22.9176 174.254 22.6383 174.463 22.3068C174.676 21.9754 174.822 21.5966 174.903 21.1705L177.559 21.1847C177.46 21.8759 177.244 22.5246 176.913 23.1307C176.586 23.7367 176.158 24.2718 175.627 24.7358C175.097 25.1951 174.477 25.5549 173.767 25.8153C173.056 26.071 172.268 26.1989 171.401 26.1989C170.123 26.1989 168.982 25.9029 167.978 25.3111C166.974 24.7192 166.184 23.8646 165.606 22.7472C165.028 21.6297 164.74 20.2898 164.74 18.7273C164.74 17.16 165.031 15.8201 165.613 14.7074C166.196 13.59 166.989 12.7353 167.992 12.1435C168.996 11.5516 170.133 11.2557 171.401 11.2557C172.211 11.2557 172.964 11.3693 173.66 11.5966C174.356 11.8239 174.976 12.1577 175.521 12.598C176.065 13.0336 176.513 13.5687 176.863 14.2031C177.218 14.8329 177.45 15.5526 177.559 16.3622ZM184.464 26H181.652L186.773 11.4545H190.025L195.153 26H192.341L188.456 14.4375H188.342L184.464 26ZM184.557 20.2969H192.227V22.4134H184.557V20.2969ZM211.822 11.4545V26H209.478L202.625 16.0923H202.504V26H199.869V11.4545H202.227L209.074 21.3693H209.201V11.4545H211.822Z" fill="#F0EEED"/>
<defs>
<clipPath id="clip0_102_14">
<rect width="38" height="38" fill="white"/>
</clipPath>
</defs>
</svg>
